<?xml version="1.0" encoding="utf-8"?>
<!DOCTYPE svg PUBLIC "-//W3C//DTD SVG 1.1//EN" "http://www.w3.org/Graphics/SVG/1.1/DTD/svg11.dtd">
<svg xmlns="http://www.w3.org/2000/svg" xmlns:xlink="http://www.w3.org/1999/xlink"
	 width="92px" height="36px" viewBox="-10 0 112 36" xml:space="preserve">
<g>
<path 
  d="
    M 34 34 
    L 6 34 
    Q 0 25 2 12 
    L 30 2
    Q 24 20 34 34
  "
  stroke="black"
  fill="#17d171"
  stroke-linecap="round"
/>
<mask id="bucket">
  <rect x="0" y="0" width="100" height="100" fill="white" />
  <path 
    d="
      M 34 34 
      L 8 34 
      Q 0 25 2 12 
      L 30 2
      Q 24 20 34 34
    "
    stroke="black"
    fill="black"
    stroke-linecap="round"
  />
</mask>
<path 
  d="
    M 6 16
    L 18 12
    C 24 10 25 18 22 19
    L 6.75 21.5
    Q 5 19 6 16
    M 10 31
    L 24 30.5
    C 28 28 26 24 22 24
    L 7.75 26
    Q 8 29 10 31
  "
  stroke="rgba(0, 0, 0, 0.75)"
  fill="#17a15a"
  stroke-linecap="round"
/>
<path 
  d="
    M 34.5 34
    Q 40 20 30.75 1.75
  "
  stroke="rgba(0, 0, 0, 0.5)"
  fill="transparent"
  stroke-linecap="round"
/>
<path 
  d="
    M 24 9
    Q 6 6 8 9
  "
  stroke="rgba(0, 0, 0, 1)"
  fill="transparent"
  stroke-linecap="round"
/>
<circle cx="24" cy="9" r="1.25" />
<text x="25" y="32" 
  font-variant="all-small-caps"
  font-family="sans-serif"
  font-weight="bold"
  font-size="28px"
  letter-spacing="-1.5"
  mask="url(#bucket)"
>uckit</text>
</g>
</svg>
